<svg xmlns="http://www.w3.org/2000/svg" xmlns:xlink="http://www.w3.org/1999/xlink" viewBox="0 0 56.9 56"><defs><style>.cls-1,.cls-2,.cls-3{opacity:0.8;}.cls-1{fill:url(#Unbenannter_Verlauf_14);}.cls-2{fill:url(#Unbenannter_Verlauf_14-2);}.cls-3{fill:url(#Unbenannter_Verlauf_14-3);}.cls-4{fill:url(#Unbenannter_Verlauf_274);}.cls-5{fill:url(#Unbenannter_Verlauf_30);}.cls-6{fill:url(#Unbenannter_Verlauf_51);}.cls-7{fill:url(#Unbenannter_Verlauf_549);}</style><linearGradient id="Unbenannter_Verlauf_14" x1="28.4" y1="56" x2="28.4" y2="28.98" gradientUnits="userSpaceOnUse"><stop offset="0" stop-color="#603813"/><stop offset="1" stop-color="#c69c6d"/></linearGradient><linearGradient id="Unbenannter_Verlauf_14-2" x1="28.61" y1="37.11" x2="28.61" y2="7.17" xlink:href="#Unbenannter_Verlauf_14"/><linearGradient id="Unbenannter_Verlauf_14-3" x1="28.4" y1="37.11" x2="28.4" y2="7.17" xlink:href="#Unbenannter_Verlauf_14"/><linearGradient id="Unbenannter_Verlauf_274" x1="26.41" y1="14.18" x2="56.9" y2="14.18" gradientUnits="userSpaceOnUse"><stop offset="0" stop-color="red"/><stop offset="1" stop-color="#ff9391"/></linearGradient><linearGradient id="Unbenannter_Verlauf_30" x1="56.65" y1="39.36" x2="28.19" y2="39.36" gradientUnits="userSpaceOnUse"><stop offset="0" stop-color="aqua"/><stop offset="1" stop-color="blue"/></linearGradient><linearGradient id="Unbenannter_Verlauf_51" x1="0.25" y1="14.93" x2="28.72" y2="14.93" gradientUnits="userSpaceOnUse"><stop offset="0" stop-color="#ff0"/><stop offset="1" stop-color="#ff931e"/></linearGradient><linearGradient id="Unbenannter_Verlauf_549" x1="30.49" y1="41.54" x2="0" y2="41.54" gradientUnits="userSpaceOnUse"><stop offset="0" stop-color="#187700"/><stop offset="1" stop-color="#89ff00"/></linearGradient></defs><g id="Ebene_2" data-name="Ebene 2"><g id="Ebene_1-2" data-name="Ebene 1"><path class="cls-1" d="M41.15,36.27h0a104.74,104.74,0,0,1-12.63.84,107.2,107.2,0,0,1-12.86-.85L11.91,54.38c-.1.51.68.95,1.69.95A89.29,89.29,0,0,0,25,56V38.71h6.91V56a106,106,0,0,0,11.35-.66c1,0,1.79-.44,1.68-.95Z"/><path class="cls-2" d="M41.15,36.27h0c.81-.1,1.46-.2,1.89-.26a.59.59,0,0,0,.49-.73L40.78,23.67c-.65-2.73-5.84-4.81-12-4.81h-.68c-6.19,0-11.39,2.08-12,4.81l-2.28,9.64a2.4,2.4,0,0,0,1.89,2.95h0c2.85.25,7.75.61,12.86.61S38.36,36.52,41.15,36.27Z"/><path class="cls-3" d="M41.15,36.27h0c-2.79.25-7.55.6-12.63.6s-10-.36-12.86-.61a107.2,107.2,0,0,0,12.86.85A104.74,104.74,0,0,0,41.15,36.27Z"/><path class="cls-4" d="M56.9.24C48.41,13.71,37.07,14.66,28.58,28.12c-3.76-6.18,1.59-13.63-2.17-19.8C38.66,1,44.65,7.53,56.9.24Z"/><path class="cls-5" d="M56.65,55.72C42.91,47.41,41.93,36.3,28.19,28c6.31-3.69,9.4-1.31,15.71-5C51.34,35,49.22,43.72,56.65,55.72Z"/><path class="cls-6" d="M.25,0C14,8.31,15,19.42,28.72,27.73c-6.31,3.68-13.92-1.55-20.23,2.13C1.06,17.86,7.69,12,.25,0Z"/><path class="cls-7" d="M0,55.47C8.49,42,19.83,41.06,28.32,27.6c3.76,6.18-1.59,13.62,2.17,19.8C18.24,54.68,12.25,48.19,0,55.47Z"/></g></g></svg>